<?xml version="1.0" encoding="utf-8"?>
<!-- Generator: Adobe Illustrator 22.1.0, SVG Export Plug-In . SVG Version: 6.00 Build 0)  -->
<svg version="1.1" id="Layer_1" xmlns="http://www.w3.org/2000/svg" xmlns:xlink="http://www.w3.org/1999/xlink" x="0px" y="0px"
	 viewBox="0 0 250 250" style="enable-background:new 0 0 250 250;" xml:space="preserve">
<style type="text/css">
	.st0{fill:#4E00CC;}
	.st1{fill:#41069F;}
	.st2{fill:#20FC8F;}
	.st3{fill:#1EE27B;}
</style>
<rect class="st0" width="250" height="250"/>
<g>
	<path class="st1" d="M217.1,88.5c-4.7-10.1-11.4-17.8-20.1-23.3c-8.8-5.4-18.9-8.2-30.3-8.2c-15.4,0-27.9,4.2-37.3,12.6
		c-1.1,0.9-2.9,2.8-4.4,4.5c-1.5-1.6-3.3-3.5-4.3-4.5c-9.4-8.4-21.9-12.6-37.3-12.6c-11.5,0-21.6,2.7-30.3,8.2
		c-8.8,5.5-15.5,13.2-20.1,23.3c-4.7,10.1-7,21.7-7,34.9v13.1c0,12.9,2.6,24.2,7.2,33.9c4.6,9.7,11.2,17.3,19.7,22.5
		c8.5,5.3,18.3,7.9,29.5,7.9c16,0,28.8-4.2,38.4-12.6c1.3-1.1,3.1-3,4.5-4.5c1.4,1.6,3.3,3.5,4.4,4.5c9.6,8.4,22.4,12.6,38.4,12.6
		c11.2,0,21-2.6,29.5-7.9c8.5-5.3,15-12.8,19.7-22.5c4.6-9.7,7.2-21.1,7.2-33.9v-13.1C224.1,110.2,221.8,98.6,217.1,88.5z
		 M142.2,88.2c1.1-1.9,2.3-3.5,3.8-4.9c4.7-4.5,11.6-6.7,20.7-6.7c10.6,0,21.4,3.9,27.1,11.6c5.7,7.7,8.7,19.1,8.7,34v12.4
		c0,15.1-2.7,26.7-8.1,34.7c-5.4,8-16.1,11.9-26.5,11.9c-9.6,0-16.7-2.1-21.5-6.4c-4.8-4.3-7.8-11.4-9.1-21.4l-24.3,0
		c0,0,0,0.1,0,0.1c-1.3,10-4.3,17.1-9.1,21.4c-4.8,4.3-12,6.4-21.5,6.4c-10.5,0-21.1-4-26.5-11.9c-5.4-8-8.1-19.5-8.1-34.7v-12.4
		c0-15,3-26.3,8.7-34c5.7-7.7,16.5-11.6,27.1-11.6c9.1,0,16,2.2,20.7,6.7c1.4,1.4,2.7,3,3.8,4.9L142.2,88.2L142.2,88.2z"/>
	<path class="st1" d="M133.2,88.2c-2-5.3-4.8-10-8.2-14.1c-3.5,4.1-6.2,8.8-8.2,14.1C116.8,88.2,133.2,88.2,133.2,88.2z"/>
	<path class="st1" d="M112.9,153.4c1.2,12.4,5.2,22.6,12.1,30.4c6.9-7.9,10.9-18,12.1-30.4H112.9z"/>
	<path class="st1" d="M100.4,126c0-1.5-1.2-2.7-2.7-2.7h-7.7c-1.5,0-2.7-1.2-2.7-2.7v-7.7c0-1.5-1.2-2.7-2.7-2.7h-5.9
		c-1.5,0-2.7,1.2-2.7,2.7v7.7c0,1.5-1.2,2.7-2.7,2.7h-7.7c-1.5,0-2.7,1.2-2.7,2.7v5.9c0,1.5,1.2,2.7,2.7,2.7H73
		c1.5,0,2.7,1.2,2.7,2.7v7.7c0,1.5,1.2,2.7,2.7,2.7h5.9c1.5,0,2.7-1.2,2.7-2.7v-7.7c0-1.5,1.2-2.7,2.7-2.7h7.7
		c1.5,0,2.7-1.2,2.7-2.7V126L100.4,126z"/>
	<path class="st1" d="M164.2,129c0,5-4,9-9,9c-5,0-9-4-9-9c0-5,4-9,9-9C160.2,120,164.2,124,164.2,129z"/>
	<path class="st1" d="M190.9,129c0,5-4,9-9,9c-5,0-9-4-9-9c0-5,4-9,9-9C186.9,120,190.9,124,190.9,129z"/>
</g>
<g>
	<path class="st2" d="M217.1,84.5c-4.7-10.1-11.4-17.8-20.1-23.3c-8.8-5.4-18.9-8.2-30.3-8.2c-15.4,0-27.9,4.2-37.3,12.6
		c-1.1,0.9-2.9,2.8-4.4,4.5c-1.5-1.6-3.3-3.5-4.3-4.5c-9.4-8.4-21.9-12.6-37.3-12.6c-11.5,0-21.6,2.7-30.3,8.2
		c-8.8,5.5-15.5,13.2-20.1,23.3c-4.7,10.1-7,21.7-7,34.9v13.1c0,12.9,2.6,24.2,7.2,33.9c4.6,9.7,11.2,17.3,19.7,22.5
		c8.5,5.3,18.3,7.9,29.5,7.9c16,0,28.8-4.2,38.4-12.6c1.3-1.1,3.1-3,4.5-4.5c1.4,1.6,3.3,3.5,4.4,4.5c9.6,8.4,22.4,12.6,38.4,12.6
		c11.2,0,21-2.6,29.5-7.9c8.5-5.3,15-12.8,19.7-22.5c4.6-9.7,7.2-21.1,7.2-33.9v-13.1C224.1,106.2,221.8,94.6,217.1,84.5z
		 M142.2,84.2c1.1-1.9,2.3-3.5,3.8-4.9c4.7-4.5,11.6-6.7,20.7-6.7c10.6,0,21.4,3.9,27.1,11.6c5.7,7.7,8.7,19.1,8.7,34v12.4
		c0,15.1-2.7,26.7-8.1,34.7c-5.4,8-16.1,11.9-26.5,11.9c-9.6,0-16.7-2.1-21.5-6.4c-4.8-4.3-7.8-11.4-9.1-21.4l-24.3,0
		c0,0,0,0.1,0,0.1c-1.3,10-4.3,17.1-9.1,21.4c-4.8,4.3-12,6.4-21.5,6.4c-10.5,0-21.1-4-26.5-11.9c-5.4-8-8.1-19.5-8.1-34.7v-12.4
		c0-15,3-26.3,8.7-34c5.7-7.7,16.5-11.6,27.1-11.6c9.1,0,16,2.2,20.7,6.7c1.4,1.4,2.7,3,3.8,4.9L142.2,84.2L142.2,84.2z"/>
	<path class="st3" d="M133.2,84.2c-2-5.3-4.8-10-8.2-14.1c-3.5,4.1-6.2,8.8-8.2,14.1C116.8,84.2,133.2,84.2,133.2,84.2z"/>
	<path class="st3" d="M112.9,149.4c1.2,12.4,5.2,22.6,12.1,30.4c6.9-7.9,10.9-18,12.1-30.4H112.9z"/>
	<path class="st2" d="M100.4,122c0-1.5-1.2-2.7-2.7-2.7h-7.7c-1.5,0-2.7-1.2-2.7-2.7v-7.7c0-1.5-1.2-2.7-2.7-2.7h-5.9
		c-1.5,0-2.7,1.2-2.7,2.7v7.7c0,1.5-1.2,2.7-2.7,2.7h-7.7c-1.5,0-2.7,1.2-2.7,2.7v5.9c0,1.5,1.2,2.7,2.7,2.7H73
		c1.5,0,2.7,1.2,2.7,2.7v7.7c0,1.5,1.2,2.7,2.7,2.7h5.9c1.5,0,2.7-1.2,2.7-2.7v-7.7c0-1.5,1.2-2.7,2.7-2.7h7.7
		c1.5,0,2.7-1.2,2.7-2.7V122L100.4,122z"/>
	<path class="st2" d="M164.2,125c0,5-4,9-9,9c-5,0-9-4-9-9c0-5,4-9,9-9C160.2,116,164.2,120,164.2,125z"/>
	<path class="st2" d="M190.9,125c0,5-4,9-9,9c-5,0-9-4-9-9c0-5,4-9,9-9C186.9,116,190.9,120,190.9,125z"/>
</g>
</svg>
